<svg width="20" height="20" viewBox="0 0 20 20" fill="none" xmlns="http://www.w3.org/2000/svg">
<path d="M14.5085 4.84166L14.2626 4.9875L12.8793 5.7875V5.45833C12.8793 4.96666 12.521 4.55833 12.0501 4.47916C11.996 4.47083 11.9418 4.46666 11.8876 4.46666H3.2043C2.65847 4.46666 2.21264 4.9125 2.21264 5.45833V9.29166L2.15014 9.37083L1.36264 9.71666L0.512638 10.0875V5.45833C0.512638 3.975 1.72097 2.76666 3.2043 2.76666H11.8876C13.1626 2.76666 14.2335 3.65416 14.5085 4.84583V4.84166Z" fill="white"/>
<path d="M14.6375 6.7375V14.1208C14.6375 14.2833 14.6208 14.4417 14.5958 14.5958C14.5875 14.6375 14.5792 14.6792 14.5708 14.7167C14.4833 15.1125 14.3042 15.4792 14.0583 15.7875L12.775 14.6667C12.875 14.5125 12.9375 14.3292 12.9375 14.1292V7.725L13.7167 7.27084H13.725L14.6083 6.75L14.6375 6.73334V6.7375Z" fill="white"/>
<path d="M14.6083 6.75837L14.6375 6.7417L15.5875 6.1917L16.5833 5.61253C16.9917 5.3792 17.35 5.53337 17.4833 5.61253C17.6167 5.6917 17.9333 5.92503 17.9333 6.3917V11.7959V13.175C17.9333 13.35 17.8917 13.4917 17.8292 13.6042C17.725 13.7959 17.5708 13.9042 17.4833 13.9542C17.3875 14.0084 17.1875 14.1 16.9375 14.0709V15.775C16.9708 15.775 17 15.775 17.0333 15.775C17.2708 15.775 17.5042 15.7417 17.7375 15.675C17.9417 15.6167 18.1417 15.5334 18.3333 15.4209C19.1458 14.95 19.6333 14.1084 19.6333 13.1667V6.3917C19.6333 5.45003 19.1458 4.60837 18.3333 4.13753C17.525 3.67087 16.5625 3.6667 15.75 4.1292L15.675 4.17503L14.2583 4.9917L12.875 5.7917L12.3208 6.11253L12.0708 6.25837V8.23753L12.3208 8.0917L12.9333 7.73337L14.6083 6.76253V6.75837Z" fill="white"/>
<path d="M16.7 14.0083C16.6625 13.9917 16.625 13.975 16.5875 13.9542L14.6417 12.8083V14.125C14.6417 14.2875 14.6292 14.4459 14.6 14.6C14.5917 14.6417 14.5833 14.6834 14.575 14.7209C14.5708 14.7417 14.5667 14.7667 14.5583 14.7875L15.7375 15.4334C15.8375 15.4917 15.9458 15.5417 16.05 15.5875C16.3375 15.7083 16.6375 15.7709 16.9417 15.7834V14.0792C16.8667 14.0709 16.7833 14.05 16.7 14.0167V14.0083Z" fill="white"/>
<path d="M12.3208 6.10835V8.08335L10.7375 9.00419L9.05833 13.3042C8.89583 13.7375 8.51667 14.0542 8.0625 14.1375C7.9875 14.15 7.90833 14.1584 7.83333 14.1584C7.45 14.1584 7.07917 13.9917 6.82917 13.6917L4.40833 10.8167L2.84167 11.4834V9.72085L4.39167 9.05835C4.39167 9.05835 4.41667 9.05002 4.42917 9.04585C4.44167 9.04585 4.45 9.03752 4.4625 9.03335C4.4625 9.03335 4.47083 9.03335 4.475 9.03335C4.48333 9.03335 4.49167 9.02919 4.5 9.02919C4.50417 9.02919 4.50833 9.02919 4.51667 9.02919C4.525 9.02919 4.53333 9.02919 4.5375 9.02502C4.54167 9.02502 4.55 9.02502 4.55417 9.02502C4.5625 9.02502 4.56667 9.02502 4.575 9.02502C4.58333 9.02502 4.59167 9.02502 4.59583 9.02502C4.62083 9.02502 4.64583 9.02085 4.66667 9.01669C4.69167 9.01669 4.72083 9.01669 4.74583 9.01669C4.775 9.01669 4.80417 9.02085 4.83333 9.02502C4.84583 9.02502 4.85833 9.02919 4.87083 9.03335C4.87083 9.03335 4.8875 9.03335 4.89583 9.03752C4.90417 9.03752 4.90833 9.03752 4.91667 9.04169C4.92917 9.04169 4.94167 9.05002 4.95 9.05002C4.95833 9.05002 4.9625 9.05002 4.97083 9.05835C4.97917 9.05835 4.99167 9.06669 5 9.07085C5.00417 9.07085 5.00833 9.07085 5.0125 9.07502C5.0125 9.07502 5.0125 9.07502 5.01667 9.07502C5.025 9.07502 5.03333 9.08335 5.04167 9.08752C5.05417 9.09169 5.06667 9.10002 5.07917 9.10419C5.09167 9.10835 5.1 9.11669 5.1125 9.12085C5.11667 9.12085 5.125 9.12502 5.12917 9.12919C5.1375 9.13335 5.15 9.14169 5.15833 9.14585C5.17083 9.15419 5.17917 9.16252 5.19167 9.16669C5.20417 9.17502 5.2125 9.18335 5.225 9.19169C5.2375 9.20002 5.25 9.21252 5.25833 9.22502C5.27083 9.23752 5.27917 9.24585 5.29167 9.25835C5.30417 9.27085 5.3125 9.28335 5.325 9.29585C5.325 9.29585 5.33333 9.30419 5.33333 9.30835L5.575 9.59585L7.66667 12.0834L8.99583 8.67919L9.21667 8.11669C9.21667 8.11669 9.22917 8.08335 9.2375 8.06669C9.2375 8.05835 9.24583 8.04585 9.25 8.03752C9.2625 8.01669 9.27083 7.99585 9.28333 7.97502C9.2875 7.96669 9.29167 7.95835 9.29583 7.95002C9.3 7.94169 9.30833 7.92919 9.31667 7.92085C9.325 7.91252 9.32917 7.90419 9.33333 7.89585C9.34583 7.87919 9.35833 7.86252 9.375 7.84585C9.38333 7.83752 9.3875 7.82919 9.39583 7.82085C9.40417 7.81252 9.40833 7.80419 9.41667 7.80002C9.425 7.79169 9.43333 7.78335 9.4375 7.77919C9.44583 7.77085 9.45417 7.76669 9.4625 7.75835C9.49583 7.73335 9.52917 7.70835 9.56667 7.68335C9.575 7.67919 9.57917 7.67502 9.5875 7.67085L10.2875 7.25419H10.2917L12.2792 6.10419L12.3208 6.10835Z" fill="white"/>
<mask id="mask0_2_5" style="mask-type:luminance" maskUnits="userSpaceOnUse" x="0" y="9" width="15" height="8">
<path d="M14.0625 15.7875C13.5667 16.4125 12.8042 16.8167 11.9458 16.8167H3.2C1.71667 16.8167 0.508335 15.6084 0.508335 14.125V10.7167L2.9 9.69586V11.4584L2.22083 11.75H2.20834V14.1292C2.20834 14.675 2.65417 15.1209 3.2 15.1209H11.9458C12.2917 15.1209 12.6 14.9417 12.775 14.6709L14.0583 15.7917L14.0625 15.7875Z" fill="white"/>
</mask>
<g mask="url(#mask0_2_5)">
<mask id="mask1_2_5" style="mask-type:luminance" maskUnits="userSpaceOnUse" x="-2" y="7" width="19" height="12">
<path d="M16.1458 7.61249H-1.575V18.9H16.1458V7.61249Z" fill="white"/>
</mask>
<g mask="url(#mask1_2_5)">
<rect x="-1.74167" y="7.52087" width="18" height="11.4" fill="white"/>
</g>
</g>
</svg>
